<svg width="166" height="79" viewBox="0 0 166 79" fill="none" xmlns="http://www.w3.org/2000/svg">
<path d="M1.0062 46.2766C1.0062 46.1255 1.03559 45.9759 1.0927 45.8364C1.14982 45.6968 1.23353 45.57 1.33907 45.4632C1.4446 45.3563 1.56989 45.2716 1.70778 45.2138C1.84567 45.156 1.99346 45.1262 2.14271 45.1262C2.29196 45.1262 2.43973 45.156 2.57762 45.2138C2.71551 45.2716 2.8408 45.3563 2.94634 45.4632C3.05187 45.57 3.13559 45.6968 3.1927 45.8364C3.24982 45.9759 3.27921 46.1255 3.27921 46.2766V47.8675C4.28877 46.3378 5.64897 44.9243 8.21821 44.9243C9.24753 44.8895 10.2638 45.1653 11.1379 45.7166C12.0119 46.2679 12.7043 47.0698 13.127 48.0204C13.6689 47.0637 14.4546 46.2717 15.402 45.7271C16.3494 45.1825 17.4239 44.9053 18.5133 44.9243C22.0256 44.9243 24.1898 47.329 24.1898 51.1777V59.7747C24.2012 59.9332 24.1803 60.0924 24.1282 60.2424C24.0761 60.3923 23.994 60.5298 23.887 60.6462C23.7801 60.7626 23.6506 60.8554 23.5067 60.9189C23.3627 60.9824 23.2073 61.0152 23.0503 61.0152C22.8932 61.0152 22.7379 60.9824 22.5939 60.9189C22.45 60.8554 22.3205 60.7626 22.2135 60.6462C22.1066 60.5298 22.0245 60.3923 21.9724 60.2424C21.9203 60.0924 21.8994 59.9332 21.9108 59.7747V51.7162C21.9108 48.7119 20.4297 47.0292 17.9511 47.0292C15.6418 47.0292 13.7194 48.773 13.7194 51.8386V59.793C13.7308 59.9516 13.7098 60.1108 13.6577 60.2607C13.6056 60.4107 13.5236 60.5481 13.4167 60.6645C13.3097 60.781 13.1802 60.8738 13.0362 60.9373C12.8923 61.0008 12.7369 61.0335 12.5799 61.0335C12.4229 61.0335 12.2675 61.0008 12.1235 60.9373C11.9795 60.8738 11.8501 60.781 11.7431 60.6645C11.6362 60.5481 11.5541 60.4107 11.502 60.2607C11.4499 60.1108 11.4289 59.9516 11.4404 59.793V51.6856C11.4404 48.773 9.93507 47.0598 7.50487 47.0598C5.07467 47.0598 3.27318 49.1035 3.27318 51.9548V59.8053C3.27973 59.9577 3.25561 60.1099 3.20228 60.2526C3.14894 60.3953 3.0675 60.5256 2.96291 60.6354C2.85831 60.7453 2.73274 60.8325 2.59382 60.8918C2.4549 60.951 2.30554 60.9811 2.1548 60.9801C2.0022 60.9817 1.85081 60.9524 1.70959 60.8939C1.56837 60.8354 1.44016 60.7488 1.33254 60.6393C1.22491 60.5298 1.14005 60.3996 1.08296 60.2563C1.02587 60.1131 0.997714 59.9597 1.00015 59.8053L1.0062 46.2766Z" fill="#D9773D"/>
<path d="M1.0062 46.2766C1.0062 46.1255 1.03559 45.9759 1.0927 45.8364C1.14982 45.6968 1.23353 45.57 1.33907 45.4632C1.4446 45.3563 1.56989 45.2716 1.70778 45.2138C1.84567 45.156 1.99346 45.1262 2.14271 45.1262C2.29196 45.1262 2.43973 45.156 2.57762 45.2138C2.71551 45.2716 2.8408 45.3563 2.94634 45.4632C3.05187 45.57 3.13559 45.6968 3.1927 45.8364C3.24982 45.9759 3.27921 46.1255 3.27921 46.2766V47.8675C4.28877 46.3378 5.64897 44.9243 8.21821 44.9243C9.24753 44.8895 10.2638 45.1653 11.1379 45.7166C12.0119 46.2679 12.7043 47.0698 13.127 48.0204C13.6689 47.0637 14.4546 46.2717 15.402 45.7271C16.3494 45.1825 17.4239 44.9053 18.5133 44.9243C22.0256 44.9243 24.1898 47.329 24.1898 51.1777V59.7747C24.2012 59.9332 24.1803 60.0924 24.1282 60.2424C24.0761 60.3923 23.994 60.5298 23.887 60.6462C23.7801 60.7626 23.6506 60.8554 23.5067 60.9189C23.3627 60.9824 23.2073 61.0152 23.0503 61.0152C22.8932 61.0152 22.7379 60.9824 22.5939 60.9189C22.45 60.8554 22.3205 60.7626 22.2135 60.6462C22.1066 60.5298 22.0245 60.3923 21.9724 60.2424C21.9203 60.0924 21.8994 59.9332 21.9108 59.7747V51.7162C21.9108 48.7119 20.4297 47.0292 17.9511 47.0292C15.6418 47.0292 13.7194 48.773 13.7194 51.8386V59.793C13.7308 59.9516 13.7098 60.1108 13.6577 60.2607C13.6057 60.4107 13.5236 60.5481 13.4167 60.6645C13.3097 60.781 13.1802 60.8738 13.0362 60.9373C12.8923 61.0008 12.7369 61.0335 12.5799 61.0335C12.4229 61.0335 12.2675 61.0008 12.1235 60.9373C11.9795 60.8738 11.8501 60.781 11.7431 60.6645C11.6362 60.5481 11.5541 60.4107 11.502 60.2607C11.4499 60.1108 11.4289 59.9516 11.4404 59.793V51.6856C11.4404 48.773 9.93507 47.0598 7.50487 47.0598C5.07467 47.0598 3.27318 49.1035 3.27318 51.9548V59.8053C3.27973 59.9577 3.25562 60.1099 3.20228 60.2526C3.14894 60.3953 3.0675 60.5256 2.96291 60.6354C2.85831 60.7453 2.73274 60.8325 2.59382 60.8918C2.4549 60.951 2.30554 60.9811 2.1548 60.9801C2.0022 60.9817 1.85081 60.9524 1.70959 60.8939C1.56837 60.8354 1.44016 60.7488 1.33254 60.6393C1.22491 60.5298 1.14005 60.3996 1.08296 60.2563C1.02587 60.1131 0.997714 59.9597 1.00015 59.8053L1.0062 46.2766Z" stroke="#D9773D" stroke-miterlimit="10"/>
<path d="M39.0552 55.0816V53.5824C37.5847 53.145 36.06 52.9225 34.5273 52.9216C31.6437 52.9216 30.0356 54.1821 30.0356 56.134V56.1952C30.0356 58.1471 31.819 59.2913 33.9046 59.2913C36.7338 59.2913 39.0552 57.5474 39.0552 55.0816ZM27.7082 56.3053V56.2441C27.7082 52.9644 30.3923 51.2267 34.2915 51.2267C35.8923 51.2123 37.4867 51.4328 39.025 51.8814V51.343C39.025 48.5467 37.3262 47.1026 34.4426 47.1026C33.0642 47.1016 31.7015 47.4 30.4467 47.9776C30.3155 48.0295 30.1765 48.0585 30.0356 48.0633C29.7725 48.0634 29.5195 47.9602 29.33 47.7753C29.1406 47.5904 29.0294 47.3383 29.02 47.072C29.0198 46.8702 29.0766 46.6726 29.1838 46.5024C29.2909 46.3322 29.4438 46.1965 29.6245 46.1114C31.2079 45.402 32.9227 45.0432 34.6542 45.0589C36.8305 45.0589 38.499 45.628 39.6295 46.7722C40.6693 47.8246 41.2013 49.3299 41.2013 51.3124V59.8236C41.2079 59.9723 41.1844 60.1207 41.1321 60.2598C41.0799 60.3989 41 60.5257 40.8975 60.6323C40.795 60.739 40.6719 60.8232 40.536 60.8799C40.4 60.9365 40.2541 60.9644 40.1071 60.9617C39.9634 60.9693 39.8197 60.9469 39.685 60.896C39.5502 60.8451 39.4271 60.7668 39.3234 60.6659C39.2197 60.5649 39.1376 60.4435 39.0821 60.3092C39.0266 60.1748 38.9989 60.0304 39.0008 59.8848V58.4714C38.3493 59.3326 37.5044 60.0244 36.5362 60.4894C35.568 60.9544 34.5042 61.1792 33.4331 61.1453C30.5737 61.1453 27.684 59.4932 27.684 56.3053" fill="#D9773D"/>
<path d="M39.0552 55.0816V53.5824C37.5847 53.145 36.06 52.9225 34.5273 52.9216C31.6437 52.9216 30.0356 54.1821 30.0356 56.134V56.1952C30.0356 58.1471 31.819 59.2913 33.9046 59.2913C36.7338 59.2913 39.0552 57.5474 39.0552 55.0816ZM27.7082 56.3053V56.2441C27.7082 52.9644 30.3923 51.2267 34.2915 51.2267C35.8923 51.2123 37.4867 51.4328 39.025 51.8814V51.343C39.025 48.5467 37.3262 47.1026 34.4426 47.1026C33.0642 47.1016 31.7015 47.4 30.4467 47.9776C30.3155 48.0295 30.1765 48.0585 30.0356 48.0633C29.7725 48.0634 29.5195 47.9602 29.33 47.7753C29.1406 47.5904 29.0294 47.3383 29.02 47.072C29.0198 46.8702 29.0767 46.6726 29.1838 46.5024C29.2909 46.3322 29.4438 46.1965 29.6245 46.1114C31.2079 45.402 32.9227 45.0432 34.6542 45.0589C36.8305 45.0589 38.499 45.628 39.6295 46.7722C40.6693 47.8246 41.2013 49.3299 41.2013 51.3124V59.8236C41.2079 59.9723 41.1844 60.1207 41.1321 60.2598C41.0799 60.3989 41 60.5257 40.8975 60.6323C40.795 60.739 40.6719 60.8232 40.536 60.8799C40.4 60.9365 40.2541 60.9644 40.1071 60.9617C39.9634 60.9693 39.8197 60.9469 39.685 60.896C39.5502 60.8451 39.4271 60.7668 39.3234 60.6659C39.2197 60.5649 39.1376 60.4435 39.0821 60.3092C39.0266 60.1748 38.9989 60.0304 39.0008 59.8848V58.4714C38.3493 59.3326 37.5044 60.0244 36.5362 60.4894C35.568 60.9544 34.5043 61.1792 33.4331 61.1453C30.5979 61.1269 27.7142 59.4749 27.7142 56.287L27.7082 56.3053Z" stroke="#D9773D" stroke-miterlimit="10"/>
<path d="M44.8707 53.099V53.0379C44.8655 51.448 45.323 49.8918 46.186 48.5634C47.049 47.2351 48.2794 46.1933 49.7236 45.5681C51.1678 44.9429 52.7619 44.7621 54.307 45.048C55.8522 45.3339 57.2799 46.0741 58.4121 47.176C58.5252 47.2784 58.6154 47.4038 58.6769 47.5441C58.7384 47.6844 58.7697 47.8364 58.7688 47.9898C58.7688 48.1358 58.7403 48.2803 58.6849 48.4151C58.6296 48.5499 58.5484 48.6722 58.4462 48.7751C58.3439 48.8781 58.2226 48.9595 58.0891 49.0148C57.9557 49.0701 57.8127 49.0982 57.6685 49.0974C57.3979 49.0944 57.1361 48.9996 56.925 48.8281C56.3759 48.2524 55.7188 47.7934 54.9921 47.4782C54.2654 47.163 53.4839 46.9978 52.6933 46.9925C49.5739 46.9925 47.1921 49.6664 47.1921 53.0011V53.0623C47.1921 56.4277 49.6102 59.1077 52.8444 59.1077C54.4643 59.0718 56.0046 58.3901 57.1305 57.2109C57.2149 57.1187 57.3167 57.0447 57.4299 56.9932C57.5431 56.9417 57.6654 56.9137 57.7895 56.9111C58.0624 56.9202 58.3216 57.0341 58.5147 57.2295C58.7078 57.4249 58.8202 57.6873 58.8292 57.9635C58.8251 58.2336 58.7192 58.4919 58.533 58.6855C57.7928 59.4904 56.8936 60.1286 55.8937 60.5587C54.8939 60.9888 53.8158 61.2012 52.7296 61.182C51.6902 61.1772 50.662 60.9647 49.7039 60.5568C48.7459 60.1488 47.8768 59.5534 47.1467 58.8047C46.4165 58.056 45.8396 57.1687 45.449 56.1938C45.0585 55.2189 44.8619 54.1755 44.8707 53.1235" fill="#D9773D"/>
<path d="M44.8708 53.099V53.0379C44.8656 51.448 45.323 49.8918 46.186 48.5634C47.0491 47.2351 48.2794 46.1933 49.7236 45.5681C51.1678 44.9429 52.762 44.7621 54.3071 45.048C55.8522 45.3339 57.28 46.0741 58.4122 47.176C58.5252 47.2784 58.6154 47.4038 58.6769 47.5441C58.7384 47.6844 58.7698 47.8364 58.7689 47.9898C58.7689 48.1358 58.7404 48.2803 58.685 48.4151C58.6296 48.5499 58.5485 48.6722 58.4462 48.7751C58.344 48.8781 58.2227 48.9595 58.0892 49.0148C57.9557 49.0701 57.8128 49.0982 57.6686 49.0974C57.398 49.0944 57.1361 48.9996 56.925 48.8281C56.376 48.2524 55.7189 47.7934 54.9922 47.4782C54.2655 47.163 53.4839 46.9978 52.6934 46.9925C49.574 46.9925 47.1921 49.6664 47.1921 53.0011V53.0623C47.1921 56.4277 49.6103 59.1077 52.8445 59.1077C54.4643 59.0718 56.0046 58.3901 57.1306 57.2109C57.2149 57.1187 57.3167 57.0447 57.4299 56.9932C57.5431 56.9417 57.6654 56.9137 57.7895 56.9111C58.0624 56.9202 58.3217 57.0341 58.5147 57.2295C58.7078 57.4249 58.8202 57.6873 58.8293 57.9635C58.8252 58.2336 58.7192 58.4919 58.5331 58.6855C57.7929 59.4904 56.8936 60.1286 55.8938 60.5587C54.8939 60.9888 53.8159 61.2012 52.7296 61.182C51.6882 61.1772 50.658 60.964 49.6984 60.5545C48.7387 60.145 47.8686 59.5474 47.1381 58.7961C46.4076 58.0448 45.8312 57.1546 45.4421 56.1768C45.0529 55.1991 44.8588 54.1531 44.8708 53.099Z" stroke="#D9773D" stroke-miterlimit="10"/>
<path d="M63.7018 53.0134V53.0685C63.7018 56.7397 66.2288 59.0588 69.1426 59.0588C69.8968 59.0375 70.6394 58.8653 71.3277 58.5521C72.0159 58.239 72.6361 57.7911 73.1525 57.2343C73.6689 56.6775 74.0714 56.0227 74.3366 55.3077C74.6019 54.5928 74.7248 53.8317 74.6982 53.0685V53.0134C74.7239 52.2519 74.6003 51.4927 74.3344 50.7798C74.0684 50.067 73.6655 49.4146 73.1488 48.8603C72.6322 48.3061 72.0121 47.8611 71.3244 47.551C70.6368 47.2409 69.8952 47.0718 69.1426 47.0537C66.1744 47.0537 63.7018 49.2687 63.7018 53.0134ZM76.8684 59.7808C76.8684 60.0875 76.748 60.3817 76.5338 60.5985C76.3195 60.8154 76.0289 60.9373 75.7259 60.9373C75.4228 60.9373 75.1322 60.8154 74.918 60.5985C74.7037 60.3817 74.5833 60.0875 74.5833 59.7808V57.6821C73.332 59.5177 71.5183 61.1269 68.6952 61.1269C65.0136 61.1269 61.3563 58.1899 61.3563 53.0991V53.0379C61.3563 47.9776 65.0136 44.9855 68.6952 44.9855C69.8718 44.9846 71.0293 45.2861 72.0592 45.8619C73.0891 46.4377 73.9577 47.2689 74.5833 48.2774V39.9559C74.5776 39.8034 74.6025 39.6514 74.6566 39.509C74.7107 39.3666 74.7928 39.2368 74.898 39.1275C75.0031 39.0182 75.1291 38.9316 75.2683 38.8731C75.4075 38.8146 75.557 38.7854 75.7077 38.7872C75.8606 38.7838 76.0125 38.8118 76.1544 38.8693C76.2963 38.9267 76.4252 39.0126 76.5336 39.1217C76.6419 39.2308 76.7275 39.3609 76.785 39.5042C76.8425 39.6476 76.8709 39.8012 76.8684 39.9559V59.7808Z" fill="#D9773D"/>
<path d="M63.7018 53.0134V53.0685C63.7018 56.7397 66.2288 59.0588 69.1426 59.0588C69.8968 59.0375 70.6394 58.8653 71.3277 58.5521C72.0159 58.239 72.6361 57.7911 73.1525 57.2343C73.6689 56.6775 74.0714 56.0227 74.3366 55.3077C74.6019 54.5928 74.7248 53.8317 74.6982 53.0685V53.0134C74.7239 52.2519 74.6003 51.4927 74.3344 50.7798C74.0685 50.067 73.6655 49.4146 73.1488 48.8603C72.6322 48.3061 72.0121 47.8611 71.3244 47.551C70.6368 47.2409 69.8952 47.0718 69.1426 47.0537C66.1441 47.0537 63.7018 49.2687 63.7018 53.0134ZM76.8684 59.7808C76.8684 60.0875 76.748 60.3817 76.5338 60.5985C76.3195 60.8154 76.0289 60.9373 75.7259 60.9373C75.4228 60.9373 75.1322 60.8154 74.918 60.5985C74.7037 60.3817 74.5833 60.0875 74.5833 59.7808V57.6821C73.332 59.5177 71.5183 61.1269 68.6952 61.1269C65.0136 61.1269 61.3563 58.1899 61.3563 53.0991V53.0379C61.3563 47.9776 65.0136 44.9855 68.6952 44.9855C69.8718 44.9846 71.0293 45.2861 72.0592 45.8619C73.0891 46.4377 73.9577 47.2689 74.5833 48.2774V39.9559C74.5776 39.8034 74.6025 39.6514 74.6566 39.509C74.7107 39.3666 74.7928 39.2368 74.898 39.1275C75.0031 39.0182 75.1291 38.9316 75.2683 38.8731C75.4075 38.8146 75.557 38.7854 75.7077 38.7872C75.8606 38.7838 76.0125 38.8118 76.1544 38.8693C76.2963 38.9267 76.4252 39.0126 76.5336 39.1217C76.6419 39.2308 76.7275 39.3609 76.785 39.5042C76.8425 39.6476 76.8709 39.8012 76.8684 39.9559V59.7808Z" stroke="#D9773D" stroke-miterlimit="10"/>
<path d="M81.6805 46.2704C81.7016 45.9743 81.8328 45.6973 82.0476 45.495C82.2623 45.2928 82.5448 45.1804 82.8381 45.1804C83.1315 45.1804 83.414 45.2928 83.6287 45.495C83.8435 45.6973 83.9746 45.9743 83.9958 46.2704V49.1891C85.1384 46.607 87.3872 45.0406 89.3459 45.0406C89.4989 45.0353 89.6513 45.0622 89.7935 45.1196C89.9357 45.1771 90.0645 45.2637 90.1719 45.3741C90.2793 45.4846 90.3629 45.6163 90.4174 45.7612C90.4719 45.906 90.4961 46.0606 90.4885 46.2154C90.4943 46.5055 90.3917 46.7871 90.2011 47.0038C90.0105 47.2205 89.7461 47.3564 89.4608 47.3841C86.4381 47.7451 84.02 50.0029 84.02 54.4819V59.7747C84.0315 59.9357 84.0101 60.0973 83.9571 60.2496C83.9042 60.4018 83.8208 60.5414 83.7121 60.6596C83.6035 60.7778 83.472 60.872 83.3258 60.9365C83.1796 61.0009 83.0218 61.0342 82.8623 61.0342C82.7028 61.0342 82.5451 61.0009 82.3989 60.9365C82.2527 60.872 82.1211 60.7778 82.0125 60.6596C81.9039 60.5414 81.8205 60.4018 81.7675 60.2496C81.7146 60.0973 81.6931 59.9357 81.7046 59.7747L81.6805 46.2704Z" fill="#D9773D"/>
<path d="M81.6805 46.2704C81.7016 45.9743 81.8328 45.6973 82.0476 45.495C82.2623 45.2928 82.5448 45.1804 82.8381 45.1804C83.1315 45.1804 83.414 45.2928 83.6287 45.495C83.8435 45.6973 83.9746 45.9743 83.9958 46.2704V49.1891C85.1384 46.607 87.3872 45.0406 89.3459 45.0406C89.4989 45.0353 89.6513 45.0622 89.7935 45.1196C89.9357 45.1771 90.0645 45.2637 90.1719 45.3741C90.2793 45.4846 90.3629 45.6163 90.4174 45.7612C90.4719 45.906 90.4961 46.0606 90.4885 46.2154C90.4943 46.5055 90.3917 46.7871 90.2011 47.0038C90.0105 47.2205 89.7461 47.3564 89.4608 47.3841C86.4381 47.7451 84.02 50.0029 84.02 54.4819V59.7747C84.0315 59.9357 84.0101 60.0973 83.9571 60.2496C83.9042 60.4018 83.8208 60.5414 83.7121 60.6596C83.6035 60.7778 83.472 60.872 83.3258 60.9365C83.1796 61.0009 83.0218 61.0342 82.8623 61.0342C82.7028 61.0342 82.5451 61.0009 82.3989 60.9365C82.2527 60.872 82.1211 60.7778 82.0125 60.6596C81.9039 60.5414 81.8205 60.4018 81.7675 60.2496C81.7146 60.0973 81.6931 59.9357 81.7046 59.7747L81.6805 46.2704Z" stroke="#D9773D" stroke-miterlimit="10"/>
<path d="M105.62 53.099V53.0378C105.646 52.2588 105.518 51.4824 105.244 50.7538C104.971 50.0252 104.556 49.359 104.026 48.7941C103.495 48.2291 102.859 47.7767 102.154 47.4632C101.449 47.1497 100.689 46.9813 99.9191 46.968C96.5942 46.968 94.303 49.7031 94.303 52.9767V53.0378C94.303 56.3787 96.7211 59.0832 99.9795 59.0832C103.238 59.0832 105.62 56.3787 105.62 53.099ZM91.9575 53.099V53.0378C92.0064 50.9264 92.8674 48.9176 94.3573 47.4389C95.8472 45.9603 97.8484 45.1285 99.935 45.1205C102.022 45.1125 104.029 45.929 105.53 47.3963C107.031 48.8635 107.907 50.8656 107.971 52.9767V53.0378C107.978 54.1085 107.774 55.1698 107.371 56.1599C106.968 57.15 106.375 58.0491 105.626 58.8048C104.876 59.5605 103.986 60.1577 103.006 60.5616C102.026 60.9655 100.977 61.1681 99.9191 61.1575C98.8697 61.1715 97.8282 60.9726 96.856 60.5726C95.8839 60.1726 95.0007 59.5795 94.2586 58.8284C93.5165 58.0773 92.9306 57.1834 92.5354 56.1993C92.1401 55.2153 91.9437 54.1612 91.9575 53.099Z" fill="#D9773D"/>
<path d="M105.62 53.099V53.0378C105.646 52.2588 105.518 51.4824 105.244 50.7538C104.971 50.0252 104.556 49.359 104.026 48.7941C103.495 48.2291 102.859 47.7767 102.154 47.4632C101.449 47.1497 100.689 46.9813 99.9191 46.968C96.5942 46.968 94.303 49.7031 94.303 52.9767V53.0378C94.303 56.3787 96.7211 59.0832 99.9795 59.0832C103.238 59.0832 105.62 56.3787 105.62 53.099ZM91.9575 53.099V53.0378C92.0064 50.9264 92.8674 48.9176 94.3573 47.4389C95.8472 45.9603 97.8484 45.1285 99.935 45.1205C102.022 45.1125 104.029 45.929 105.53 47.3963C107.031 48.8635 107.907 50.8656 107.971 52.9767V53.0378C107.978 54.1085 107.774 55.1698 107.371 56.1599C106.968 57.15 106.375 58.0491 105.626 58.8048C104.876 59.5605 103.986 60.1577 103.006 60.5616C102.026 60.9655 100.977 61.1681 99.9191 61.1575C98.8697 61.1715 97.8282 60.9726 96.856 60.5726C95.8839 60.1726 95.0007 59.5795 94.2586 58.8284C93.5165 58.0773 92.9306 57.1834 92.5354 56.1993C92.1401 55.2153 91.9437 54.1612 91.9575 53.099Z" stroke="#D9773D" stroke-miterlimit="10"/>
<path d="M112.034 46.3316C112.034 46.0071 112.161 45.6958 112.388 45.4663C112.615 45.2368 112.922 45.1079 113.243 45.1079C113.564 45.1079 113.871 45.2368 114.098 45.4663C114.325 45.6958 114.452 46.0071 114.452 46.3316V59.793C114.452 59.9512 114.42 60.1079 114.359 60.2534C114.298 60.3989 114.208 60.5302 114.095 60.6395C113.982 60.7488 113.848 60.8337 113.701 60.8891C113.555 60.9445 113.399 60.9692 113.243 60.9617C112.931 60.962 112.632 60.8407 112.407 60.623C112.181 60.4052 112.048 60.1079 112.034 59.793V46.3316ZM111.816 40.4576C111.826 40.2807 111.871 40.1077 111.949 39.949C112.027 39.7904 112.136 39.6495 112.269 39.535C112.403 39.4205 112.558 39.3347 112.725 39.2829C112.893 39.2311 113.069 39.2144 113.243 39.2338C113.419 39.2109 113.599 39.2248 113.77 39.2748C113.94 39.3248 114.099 39.4098 114.237 39.5246C114.374 39.6393 114.486 39.7813 114.567 39.9418C114.648 40.1023 114.695 40.2778 114.706 40.4576V40.8492C114.644 41.1912 114.465 41.5004 114.201 41.7229C113.937 41.9455 113.605 42.0674 113.261 42.0674C112.917 42.0674 112.585 41.9455 112.321 41.7229C112.057 41.5004 111.878 41.1912 111.816 40.8492V40.4576Z" fill="#D9773D"/>
<path d="M112.034 46.3316C112.034 46.0071 112.161 45.6958 112.388 45.4663C112.615 45.2368 112.922 45.1079 113.243 45.1079C113.564 45.1079 113.871 45.2368 114.098 45.4663C114.325 45.6958 114.452 46.0071 114.452 46.3316V59.793C114.452 59.9512 114.42 60.1079 114.359 60.2534C114.298 60.3989 114.208 60.5302 114.095 60.6395C113.982 60.7488 113.848 60.8337 113.701 60.8891C113.555 60.9445 113.399 60.9692 113.243 60.9617C112.931 60.962 112.632 60.8407 112.407 60.623C112.181 60.4052 112.048 60.1079 112.034 59.793V46.3316ZM111.816 40.4576C111.826 40.2807 111.871 40.1077 111.949 39.949C112.027 39.7904 112.136 39.6495 112.269 39.535C112.403 39.4205 112.558 39.3347 112.725 39.2829C112.893 39.2311 113.069 39.2144 113.243 39.2338C113.419 39.2109 113.599 39.2248 113.77 39.2748C113.94 39.3248 114.099 39.4098 114.237 39.5246C114.374 39.6393 114.486 39.7813 114.567 39.9418C114.648 40.1023 114.695 40.2778 114.706 40.4576V40.8492C114.644 41.1912 114.465 41.5004 114.201 41.7229C113.937 41.9455 113.605 42.0674 113.261 42.0674C112.917 42.0674 112.585 41.9455 112.321 41.7229C112.057 41.5004 111.878 41.1912 111.816 40.8492V40.4576Z" stroke="#D9773D" stroke-miterlimit="10"/>
<path d="M120.981 53.0134V53.0685C120.981 56.7397 123.514 59.0588 126.422 59.0588C127.176 59.0375 127.918 58.8653 128.607 58.5521C129.295 58.239 129.915 57.7911 130.431 57.2343C130.948 56.6775 131.35 56.0227 131.616 55.3077C131.881 54.5928 132.004 53.8317 131.977 53.0685V53.0134C132.003 52.2519 131.879 51.4927 131.613 50.7798C131.347 50.067 130.944 49.4146 130.428 48.8603C129.911 48.3061 129.291 47.8611 128.603 47.551C127.916 47.2409 127.174 47.0718 126.422 47.0537C123.447 47.0537 120.981 49.2687 120.981 53.0134ZM134.147 59.7808C134.147 60.0875 134.027 60.3817 133.813 60.5985C133.598 60.8154 133.308 60.9373 133.005 60.9373C132.702 60.9373 132.411 60.8154 132.197 60.5985C131.983 60.3817 131.862 60.0875 131.862 59.7808V57.6821C130.611 59.5177 128.797 61.1269 125.974 61.1269C122.293 61.1269 118.635 58.1899 118.635 53.0991V53.0379C118.635 47.9776 122.293 44.9855 125.974 44.9855C127.151 44.9846 128.308 45.2861 129.338 45.8619C130.368 46.4377 131.237 47.2689 131.862 48.2774V39.9559C131.857 39.8034 131.881 39.6514 131.936 39.509C131.99 39.3666 132.072 39.2368 132.177 39.1275C132.282 39.0182 132.408 38.9316 132.547 38.8731C132.686 38.8146 132.836 38.7854 132.987 38.7872C133.14 38.7838 133.291 38.8118 133.433 38.8693C133.575 38.9267 133.704 39.0126 133.813 39.1217C133.921 39.2308 134.006 39.3609 134.064 39.5042C134.122 39.6476 134.15 39.8012 134.147 39.9559V59.7808Z" fill="#D9773D"/>
<path d="M120.981 53.0134V53.0685C120.981 56.7397 123.514 59.0588 126.422 59.0588C127.176 59.0375 127.918 58.8653 128.607 58.5521C129.295 58.239 129.915 57.7911 130.431 57.2343C130.948 56.6775 131.35 56.0227 131.616 55.3077C131.881 54.5928 132.004 53.8317 131.977 53.0685V53.0134C132.003 52.2519 131.879 51.4927 131.613 50.7798C131.347 50.067 130.944 49.4146 130.428 48.8603C129.911 48.3061 129.291 47.8611 128.603 47.551C127.916 47.2409 127.174 47.0718 126.422 47.0537C123.417 47.0537 120.981 49.2687 120.981 53.0134ZM134.147 59.7808C134.147 60.0875 134.027 60.3817 133.813 60.5985C133.598 60.8154 133.308 60.9373 133.005 60.9373C132.702 60.9373 132.411 60.8154 132.197 60.5985C131.983 60.3817 131.862 60.0875 131.862 59.7808V57.6821C130.611 59.5177 128.797 61.1269 125.974 61.1269C122.293 61.1269 118.635 58.1899 118.635 53.0991V53.0379C118.635 47.9776 122.293 44.9855 125.974 44.9855C127.151 44.9846 128.308 45.2861 129.338 45.8619C130.368 46.4377 131.237 47.2689 131.862 48.2774V39.9559C131.857 39.8034 131.881 39.6514 131.936 39.509C131.99 39.3666 132.072 39.2368 132.177 39.1275C132.282 39.0182 132.408 38.9316 132.547 38.8731C132.686 38.8146 132.836 38.7854 132.987 38.7872C133.14 38.7838 133.291 38.8118 133.433 38.8693C133.575 38.9267 133.704 39.0126 133.813 39.1217C133.921 39.2308 134.006 39.3609 134.064 39.5042C134.122 39.6476 134.15 39.8012 134.147 39.9559V59.7808Z" stroke="#D9773D" stroke-miterlimit="10"/>
<path d="M65.4791 77.4886C65.3626 77.4032 65.2678 77.291 65.2027 77.1612C65.1375 77.0314 65.1038 76.8877 65.1043 76.7421C65.1107 76.5718 65.1627 76.4064 65.2546 76.2636C65.3466 76.1208 65.4751 76.0059 65.6265 75.9312C65.7778 75.8565 65.9464 75.8247 66.1142 75.8393C66.282 75.8539 66.4427 75.9142 66.5793 76.014C67.4379 76.7487 68.5259 77.1519 69.6503 77.1521C70.8594 77.1521 71.5969 76.583 71.5969 75.757V75.7264C71.5969 74.931 71.1556 74.5026 69.1183 74.0315C66.7788 73.4563 65.4912 72.7588 65.4912 70.709V70.6539C65.4912 68.751 67.0569 67.4354 69.2332 67.4354C70.4725 67.408 71.6902 67.7668 72.7213 68.4634C72.8535 68.5449 72.9622 68.6602 73.0365 68.7976C73.1107 68.9351 73.148 69.0899 73.1445 69.2466C73.1429 69.3663 73.1181 69.4846 73.0713 69.5946C73.0246 69.7046 72.9569 69.8042 72.8721 69.8877C72.7874 69.9712 72.6872 70.037 72.5773 70.0814C72.4674 70.1257 72.35 70.1477 72.2317 70.1461C72.0548 70.1464 71.8813 70.0978 71.7299 70.0053C70.9907 69.4784 70.113 69.1865 69.209 69.167C68.0786 69.167 67.3954 69.7483 67.3954 70.4826V70.5132C67.3954 71.3698 67.8972 71.7369 70.013 72.257C72.3344 72.8322 73.5254 73.6705 73.5254 75.5123V75.549C73.5254 77.6294 71.9112 78.8654 69.6019 78.8654C68.1146 78.8649 66.6676 78.3753 65.4791 77.4703" fill="#D9773D"/>
<path d="M82.3757 69.4302H79.7037C79.4632 69.4302 79.2325 69.3335 79.0625 69.1613C78.8924 68.9892 78.7969 68.7558 78.7969 68.5123C78.7969 68.2689 78.8924 68.0355 79.0625 67.8633C79.2325 67.6912 79.4632 67.5945 79.7037 67.5945H86.9943C87.2348 67.5945 87.4654 67.6912 87.6355 67.8633C87.8055 68.0355 87.9011 68.2689 87.9011 68.5123C87.9011 68.7558 87.8055 68.9892 87.6355 69.1613C87.4654 69.3335 87.2348 69.4302 86.9943 69.4302H84.3102V77.8435C84.2909 78.0906 84.1803 78.3212 84.0005 78.4894C83.8207 78.6577 83.5848 78.7511 83.3399 78.7511C83.095 78.7511 82.8592 78.6577 82.6793 78.4894C82.4995 78.3212 82.3889 78.0906 82.3696 77.8435L82.3757 69.4302Z" fill="#D9773D"/>
<path d="M102.107 73.2055V73.1688C102.126 72.659 102.043 72.1507 101.864 71.6738C101.685 71.197 101.414 70.7614 101.065 70.3928C100.717 70.0242 100.299 69.7301 99.8362 69.528C99.3735 69.3258 98.8754 69.2197 98.3715 69.216C97.871 69.2172 97.3759 69.3208 96.916 69.5205C96.4561 69.7203 96.0409 70.0122 95.6953 70.3786C95.3497 70.7449 95.0808 71.1783 94.9049 71.6525C94.7291 72.1268 94.6497 72.6321 94.6718 73.1382V73.1688C94.6523 73.6776 94.7342 74.1853 94.9127 74.6614C95.0912 75.1375 95.3625 75.5724 95.7106 75.9401C96.0587 76.3079 96.4763 76.6009 96.9387 76.8017C97.401 77.0026 97.8986 77.1072 98.4017 77.1093C98.9016 77.1106 99.3965 77.0093 99.8567 76.8116C100.317 76.6139 100.733 76.3239 101.079 75.959C101.425 75.5942 101.695 75.1621 101.872 74.6888C102.048 74.2156 102.129 73.711 102.107 73.2055ZM92.6466 73.2055V73.1688C92.6426 71.6271 93.2438 70.147 94.318 69.054C95.3922 67.961 96.8513 67.3447 98.3745 67.3406C99.8976 67.3365 101.36 67.9451 102.44 69.0323C103.52 70.1196 104.129 71.5965 104.133 73.1382V73.1688C104.137 74.7104 103.537 76.1909 102.463 77.2845C101.39 78.378 99.9309 78.9951 98.4077 79C96.8846 79.0049 95.4219 78.3971 94.3415 77.3104C93.2611 76.2237 92.6514 74.7471 92.6466 73.2055Z" fill="#D9773D"/>
<path d="M115.189 73.1014C116.568 73.1014 117.444 72.3672 117.444 71.2658C117.444 70.0787 116.598 69.4301 115.171 69.4301H112.348V73.1014H115.189ZM110.438 68.5735C110.436 68.444 110.46 68.3154 110.509 68.1955C110.557 68.0755 110.629 67.9667 110.72 67.8754C110.81 67.784 110.918 67.7121 111.037 67.6639C111.156 67.6156 111.283 67.592 111.411 67.5945H115.328C116.487 67.5297 117.624 67.9273 118.496 68.702C119.1 69.3484 119.426 70.211 119.403 71.1006C119.432 71.8598 119.199 72.6055 118.745 73.2104C118.29 73.8153 117.643 74.2417 116.912 74.417L119.016 77.097C119.205 77.2998 119.314 77.5651 119.324 77.8435C119.323 77.9646 119.298 78.0841 119.25 78.1953C119.203 78.3064 119.134 78.407 119.048 78.4911C118.962 78.5753 118.861 78.6414 118.749 78.6857C118.638 78.73 118.519 78.7515 118.399 78.7491C118.214 78.7514 118.03 78.7061 117.866 78.6173C117.702 78.5285 117.564 78.3991 117.462 78.2412L114.796 74.7963H112.378V77.7823C112.359 78.0278 112.249 78.2569 112.07 78.4241C111.892 78.5912 111.657 78.684 111.414 78.684C111.171 78.684 110.936 78.5912 110.758 78.4241C110.579 78.2569 110.469 78.0278 110.45 77.7823L110.438 68.5735Z" fill="#D9773D"/>
<path d="M125.817 77.7456V68.5674C125.815 68.4381 125.838 68.3097 125.886 68.1898C125.933 68.0699 126.005 67.961 126.095 67.8696C126.185 67.7782 126.293 67.7061 126.411 67.6578C126.53 67.6095 126.657 67.5859 126.784 67.5884H133.168C133.287 67.5783 133.407 67.5933 133.52 67.6325C133.634 67.6718 133.737 67.7343 133.826 67.8163C133.914 67.8982 133.984 67.9978 134.032 68.1086C134.08 68.2195 134.105 68.3392 134.105 68.4603C134.105 68.5814 134.08 68.7011 134.032 68.812C133.984 68.9228 133.914 69.0224 133.826 69.1044C133.737 69.1863 133.634 69.2489 133.52 69.2881C133.407 69.3273 133.287 69.3424 133.168 69.3322H127.727V72.2203H132.449C132.679 72.2235 132.898 72.3186 133.059 72.4849C133.219 72.6511 133.309 72.8749 133.307 73.1075C133.306 73.2208 133.284 73.3329 133.24 73.4372C133.196 73.5416 133.133 73.6363 133.053 73.7158C132.974 73.7954 132.879 73.8582 132.775 73.9009C132.672 73.9435 132.561 73.965 132.449 73.9642H127.727V76.9502H133.229C133.457 76.9518 133.676 77.0445 133.838 77.2082C134 77.372 134.091 77.5936 134.093 77.8252C134.093 77.9398 134.071 78.0533 134.027 78.1591C133.984 78.2649 133.92 78.361 133.839 78.4417C133.759 78.5225 133.664 78.5863 133.559 78.6296C133.454 78.673 133.342 78.6948 133.229 78.694H126.784C126.657 78.6957 126.53 78.6715 126.412 78.6229C126.294 78.5742 126.187 78.5022 126.097 78.4109C126.007 78.3197 125.935 78.2111 125.887 78.0916C125.839 77.9721 125.815 77.844 125.817 77.715" fill="#D9773D"/>
<path d="M145.809 29.15C144.719 29.1539 143.657 28.799 142.784 28.1388C141.911 27.4786 141.274 26.5489 140.969 25.4901C140.663 24.4312 140.706 23.3005 141.091 22.2686C141.477 21.2367 142.183 20.3595 143.104 19.7694C144.024 19.1793 145.11 18.9082 146.196 18.9971C147.282 19.086 148.31 19.5301 149.126 20.2623C149.941 20.9945 150.498 21.9751 150.715 23.0562C150.931 24.1374 150.794 25.2604 150.325 26.2558C149.919 27.1208 149.28 27.8518 148.48 28.3641C147.681 28.8763 146.755 29.1488 145.809 29.15ZM150.742 0.354892V11.4972C150.742 12.8312 150.218 14.1105 149.286 15.0538C148.354 15.997 147.09 16.5269 145.772 16.5269C144.455 16.5269 143.191 15.997 142.259 15.0538C141.327 14.1105 140.803 12.8312 140.803 11.4972V0C131.089 1.51135 123.713 8.33382 123.713 16.533C123.713 25.0994 131.747 32.1727 142.133 33.2313V43.4619L158.455 29.4254C159.771 28.5601 160.975 27.5324 162.04 26.366C164.531 23.7233 165.945 20.2273 166 16.5759C166 8.90287 159.562 2.43529 150.76 0.397724" fill="#D9773D"/>
</svg>
